<svg xmlns="http://www.w3.org/2000/svg" xmlns:xlink="http://www.w3.org/1999/xlink" viewBox="0 0 356.12052 157.03570172741473" height="157.03570172741473" width="356.12052">
    <path d="M0 157.036v-157.036h356.121v157.036z" fill="#77d4fc" stroke="transparent" stroke-width="0" rx="0%" data-fill-palette-color="tertiary"></path>
    <path d="M3.283 153.752v-150.469h349.554v150.469z" fill="#ffffff" stroke="transparent" stroke-width="0" rx="0%" data-fill-palette-color="quaternary"></path>
    <path d="M9.85 147.186v-137.336h336.421v137.336z" fill="#77d4fc" stroke="transparent" stroke-width="0" data-fill-palette-color="tertiary"></path>
    <g transform="matrix(1,0,0,1,19.69974,19.69974)">
        <g transform="matrix(1,0,0,1,0,0)">
            <svg width="316.72104" viewBox="2.9100000858306885 -36.209999084472656 128.30999755859375 36.70000076293945" height="90.56920150684931" data-palette-color="#ffffff">
                <path d="M19.65-29.91L19.65-29.91Q15.38-29.91 13.04-26.7 10.69-23.49 10.69-17.75L10.69-17.75Q10.69-5.81 19.65-5.81L19.65-5.81Q23.41-5.81 28.76-7.69L28.76-7.69 28.76-1.34Q24.37 0.49 18.95 0.49L18.95 0.49Q11.16 0.49 7.03-4.24 2.91-8.96 2.91-17.8L2.91-17.8Q2.91-23.36 4.93-27.55 6.96-31.74 10.75-33.97 14.55-36.21 19.65-36.21L19.65-36.21Q24.85-36.21 30.1-33.69L30.1-33.69 27.66-27.54Q25.66-28.49 23.63-29.2 21.61-29.91 19.65-29.91ZM43.92-29.49L43.92-18.9 46.41-18.9Q49.9-18.9 51.63-20.28 53.37-21.66 53.37-24.29L53.37-24.29Q53.37-26.95 51.91-28.22 50.46-29.49 47.36-29.49L47.36-29.49 43.92-29.49ZM61.01-24.56L61.01-24.56Q61.01-18.8 57.41-15.75 53.81-12.7 47.17-12.7L47.17-12.7 43.92-12.7 43.92 0 36.35 0 36.35-35.69 47.75-35.69Q54.25-35.69 57.63-32.9 61.01-30.1 61.01-24.56ZM97.36-18.19L97.36-18.19Q97.36-9.38 92.34-4.69 87.32 0 77.85 0L77.85 0 67.74 0 67.74-35.69 78.95-35.69Q87.69-35.69 92.52-31.08 97.36-26.46 97.36-18.19ZM89.5-17.99L89.5-17.99Q89.5-29.49 79.34-29.49L79.34-29.49 75.31-29.49 75.31-6.25 78.56-6.25Q89.5-6.25 89.5-17.99ZM108.22-35.69L115.62-21 123.06-35.69 131.22-35.69 119.38-13.89 119.38 0 111.86 0 111.86-13.65 100.02-35.69 108.22-35.69Z" opacity="1" transform="matrix(1,0,0,1,0,0)" fill="#ffffff" class="undefined-text-0" data-fill-palette-color="quaternary" id="text-0"></path>
            </svg>
        </g>
        <g transform="matrix(1,0,0,1,130.774117416,97.13578150684931)">
            <svg width="185.94692258400002" viewBox="0.8100000023841858 -38.0099983215332 349.17999267578125 38.5" height="20.500440220565437" data-palette-color="#ffffff">
                <path d="M20.75-26.42L26.25-8.18 30.44-26.42 36.23-26.42 29.03 0 24.15 0 18.48-18.14 12.92 0 8.03 0 0.81-26.42 6.59-26.42 10.86-8.37 16.28-26.42 20.75-26.42ZM51.83 0.49L51.83 0.49Q46.19 0.49 42.69-3.06 39.18-6.62 39.18-12.52L39.18-12.52 39.18-13.26Q39.18-17.21 40.71-20.32 42.23-23.44 44.99-25.17 47.75-26.9 51.14-26.9L51.14-26.9Q56.54-26.9 59.48-23.46 62.42-20.02 62.42-13.72L62.42-13.72 62.42-11.33 45.16-11.33Q45.43-8.06 47.35-6.15 49.27-4.25 52.17-4.25L52.17-4.25Q56.25-4.25 58.81-7.54L58.81-7.54 62.01-4.49Q60.42-2.12 57.77-0.82 55.12 0.49 51.83 0.49ZM51.12-22.14L51.12-22.14Q48.68-22.14 47.18-20.43 45.68-18.73 45.26-15.67L45.26-15.67 56.56-15.67 56.56-16.11Q56.37-19.09 54.98-20.62 53.59-22.14 51.12-22.14ZM90.2-13.28L90.2-12.94Q90.2-6.79 87.46-3.15 84.71 0.49 79.9 0.49L79.9 0.49Q75.26 0.49 72.68-2.86L72.68-2.86 72.38 0 67.01 0 67.01-37.5 72.94-37.5 72.94-23.88Q75.51-26.9 79.85-26.9L79.85-26.9Q84.69-26.9 87.45-23.32 90.2-19.73 90.2-13.28L90.2-13.28ZM84.27-12.7L84.27-13.45Q84.27-17.75 82.76-19.9 81.25-22.05 78.36-22.05L78.36-22.05Q74.51-22.05 72.94-18.68L72.94-18.68 72.94-7.79Q74.53-4.35 78.41-4.35L78.41-4.35Q81.2-4.35 82.71-6.42 84.22-8.5 84.27-12.7L84.27-12.7ZM106.68-17.5L106.68-12.72 93.86-12.72 93.86-17.5 106.68-17.5ZM119.59 0L113.66 0 113.66-22.02 109.63-22.02 109.63-26.42 113.66-26.42 113.66-28.83Q113.66-33.23 116.1-35.62 118.54-38.01 122.94-38.01L122.94-38.01Q124.5-38.01 126.26-37.57L126.26-37.57 126.11-32.93Q125.14-33.13 123.84-33.13L123.84-33.13Q119.59-33.13 119.59-28.76L119.59-28.76 119.59-26.42 124.97-26.42 124.97-22.02 119.59-22.02 119.59 0ZM143.15-26.56L143.13-21Q141.96-21.19 140.71-21.19L140.71-21.19Q136.63-21.19 135.22-18.07L135.22-18.07 135.22 0 129.28 0 129.28-26.42 134.95-26.42 135.09-23.46Q137.24-26.9 141.05-26.9L141.05-26.9Q142.32-26.9 143.15-26.56L143.15-26.56ZM167.98 0L161.92 0Q161.53-0.76 161.24-2.47L161.24-2.47Q158.41 0.49 154.31 0.49L154.31 0.49Q150.33 0.49 147.81-1.78 145.3-4.05 145.3-7.4L145.3-7.4Q145.3-11.62 148.43-13.88 151.57-16.14 157.41-16.14L157.41-16.14 161.04-16.14 161.04-17.87Q161.04-19.92 159.9-21.15 158.75-22.39 156.41-22.39L156.41-22.39Q154.38-22.39 153.09-21.37 151.79-20.36 151.79-18.8L151.79-18.8 145.86-18.8Q145.86-20.97 147.3-22.86 148.74-24.76 151.22-25.83 153.7-26.9 156.75-26.9L156.75-26.9Q161.39-26.9 164.15-24.57 166.9-22.24 166.98-18.02L166.98-18.02 166.98-6.1Q166.98-2.54 167.98-0.42L167.98-0.42 167.98 0ZM155.4-4.27L155.4-4.27Q157.16-4.27 158.71-5.13 160.26-5.98 161.04-7.42L161.04-7.42 161.04-12.4 157.85-12.4Q154.55-12.4 152.89-11.25 151.23-10.11 151.23-8.01L151.23-8.01Q151.23-6.3 152.37-5.29 153.5-4.27 155.4-4.27ZM173.18-26.42L178.77-26.42 178.94-23.66Q181.72-26.9 186.55-26.9L186.55-26.9Q191.85-26.9 193.81-22.85L193.81-22.85Q196.69-26.9 201.91-26.9L201.91-26.9Q206.28-26.9 208.42-24.49 210.55-22.07 210.6-17.36L210.6-17.36 210.6 0 204.67 0 204.67-17.19Q204.67-19.7 203.57-20.87 202.47-22.05 199.93-22.05L199.93-22.05Q197.91-22.05 196.63-20.96 195.34-19.87 194.83-18.12L194.83-18.12 194.86 0 188.92 0 188.92-17.38Q188.8-22.05 184.16-22.05L184.16-22.05Q180.6-22.05 179.11-19.14L179.11-19.14 179.11 0 173.18 0 173.18-26.42ZM228.32 0.49L228.32 0.49Q222.69 0.49 219.18-3.06 215.68-6.62 215.68-12.52L215.68-12.52 215.68-13.26Q215.68-17.21 217.2-20.32 218.73-23.44 221.49-25.17 224.25-26.9 227.64-26.9L227.64-26.9Q233.04-26.9 235.98-23.46 238.92-20.02 238.92-13.72L238.92-13.72 238.92-11.33 221.66-11.33Q221.93-8.06 223.84-6.15 225.76-4.25 228.67-4.25L228.67-4.25Q232.74-4.25 235.31-7.54L235.31-7.54 238.51-4.49Q236.92-2.12 234.27-0.82 231.62 0.49 228.32 0.49ZM227.62-22.14L227.62-22.14Q225.18-22.14 223.67-20.43 222.17-18.73 221.76-15.67L221.76-15.67 233.06-15.67 233.06-16.11Q232.87-19.09 231.47-20.62 230.08-22.14 227.62-22.14ZM261.23-26.42L266.73-8.18 270.92-26.42 276.71-26.42 269.51 0 264.63 0 258.96-18.14 253.4 0 248.51 0 241.29-26.42 247.07-26.42 251.34-8.37 256.76-26.42 261.23-26.42ZM279.56-13.16L279.56-13.45Q279.56-17.33 281.1-20.45 282.64-23.56 285.42-25.23 288.21-26.9 291.82-26.9L291.82-26.9Q297.17-26.9 300.5-23.46 303.83-20.02 304.1-14.33L304.1-14.33 304.13-12.94Q304.13-9.03 302.62-5.96 301.12-2.88 298.33-1.2 295.53 0.49 291.87 0.49L291.87 0.49Q286.28 0.49 282.92-3.23 279.56-6.96 279.56-13.16L279.56-13.16ZM285.5-12.94L285.5-12.94Q285.5-8.86 287.18-6.56 288.87-4.25 291.87-4.25 294.87-4.25 296.54-6.59 298.22-8.94 298.22-13.45L298.22-13.45Q298.22-17.46 296.5-19.8 294.77-22.14 291.82-22.14L291.82-22.14Q288.92-22.14 287.21-19.84 285.5-17.53 285.5-12.94ZM322.99-26.56L322.97-21Q321.8-21.19 320.55-21.19L320.55-21.19Q316.48-21.19 315.06-18.07L315.06-18.07 315.06 0 309.13 0 309.13-26.42 314.79-26.42 314.94-23.46Q317.09-26.9 320.9-26.9L320.9-26.9Q322.16-26.9 322.99-26.56L322.99-26.56ZM343.13 0L335.3-11.33 332.66-8.62 332.66 0 326.73 0 326.73-37.5 332.66-37.5 332.66-15.87 334.52-18.19 341.82-26.42 348.94-26.42 339.13-15.41 349.99 0 343.13 0Z" opacity="1" transform="matrix(1,0,0,1,0,0)" fill="#ffffff" class="undefined-text-1" data-fill-palette-color="quaternary" id="text-1"></path>
            </svg>
        </g>
    </g>
</svg>